<?xml version="1.0" encoding="UTF-8" standalone="no"?>
<!-- Created with Inkscape (http://www.inkscape.org/) -->

<svg
   xmlns:dc="http://purl.org/dc/elements/1.1/"
   xmlns:cc="http://creativecommons.org/ns#"
   xmlns:rdf="http://www.w3.org/1999/02/22-rdf-syntax-ns#"
   xmlns:svg="http://www.w3.org/2000/svg"
   xmlns="http://www.w3.org/2000/svg"
   xmlns:sodipodi="http://sodipodi.sourceforge.net/DTD/sodipodi-0.dtd"
   xmlns:inkscape="http://www.inkscape.org/namespaces/inkscape"
   width="20"
   height="20"
   id="svg2"
   version="1.1"
   inkscape:version="0.48.4 r9939"
   sodipodi:docname="mis_preguntas.svg">
  <defs
     id="defs4" />
  <sodipodi:namedview
     id="base"
     pagecolor="#ffffff"
     bordercolor="#666666"
     borderopacity="1.0"
     inkscape:pageopacity="0.0"
     inkscape:pageshadow="2"
     inkscape:zoom="23.314145"
     inkscape:cx="15.321606"
     inkscape:cy="7.337341"
     inkscape:document-units="px"
     inkscape:current-layer="layer1"
     showgrid="false"
     inkscape:window-width="1181"
     inkscape:window-height="809"
     inkscape:window-x="220"
     inkscape:window-y="102"
     inkscape:window-maximized="0"
     inkscape:snap-bbox="true"
     inkscape:bbox-paths="true"
     inkscape:bbox-nodes="true"
     inkscape:snap-bbox-edge-midpoints="true"
     inkscape:snap-bbox-midpoints="true"
     inkscape:object-paths="true"
     inkscape:snap-intersection-paths="true"
     inkscape:object-nodes="true"
     inkscape:snap-smooth-nodes="true"
     inkscape:snap-midpoints="true"
     inkscape:snap-object-midpoints="true"
     inkscape:snap-global="false"
     showguides="true"
     inkscape:guide-bbox="true"
     inkscape:snap-center="true">
    <sodipodi:guide
       orientation="0,1"
       position="64.734735,-73.443443"
       id="guide3926" />
    <sodipodi:guide
       orientation="0,1"
       position="12.916104,3.7586545"
       id="guide4059" />
  </sodipodi:namedview>
  <metadata
     id="metadata7">
    <rdf:RDF>
      <cc:Work
         rdf:about="">
        <dc:format>image/svg+xml</dc:format>
        <dc:type
           rdf:resource="http://purl.org/dc/dcmitype/StillImage" />
        <dc:title></dc:title>
      </cc:Work>
    </rdf:RDF>
  </metadata>
  <g
     inkscape:label="Capa 1"
     inkscape:groupmode="layer"
     id="layer1"
     transform="translate(0,-1032.3622)">
    <g
       id="layer1-5"
       inkscape:label="Capa 1"
       transform="matrix(0.41950625,0,0,0.41950625,5.7524713,602.17552)" />
    <path
       style="fill:#808080;fill-opacity:1;stroke:none"
       d="M 10 1.0625 C 5.0608796 1.0625 1.0625 5.0608796 1.0625 10 C 1.0625 14.93912 5.0608796 18.9375 10 18.9375 C 14.93912 18.9375 18.9375 14.93912 18.9375 10 C 18.9375 5.0608796 14.93912 1.0625 10 1.0625 z M 10 2.25 C 14.275833 2.25 17.75 5.7241668 17.75 10 C 17.75 14.275833 14.275833 17.75 10 17.75 C 5.7241668 17.75 2.25 14.275833 2.25 10 C 2.25 5.7241668 5.7241668 2.25 10 2.25 z "
       transform="translate(0,1032.3622)"
       id="path2988" />
    <g
       style="font-size:17.09060477999999961px;font-style:normal;font-weight:normal;line-height:125%;letter-spacing:0px;word-spacing:0px;fill:#808080;fill-opacity:1;stroke:none;font-family:Sans"
       id="text3033">
      <path
         d="m 13.9085,1037.0839 0,1.7775 c -0.567472,-0.5285 -1.173876,-0.9235 -1.819214,-1.185 -0.639794,-0.2614 -1.321303,-0.3922 -2.044531,-0.3922 -1.4242225,0 -2.5146376,0.4367 -3.2712483,1.3102 -0.7566184,0.8679 -1.1349257,2.1252 -1.134923,3.7719 -2.7e-6,1.6412 0.3783046,2.8985 1.134923,3.772 0.7566107,0.8679 1.8470258,1.3018 3.2712483,1.3018 0.723228,0 1.404737,-0.1307 2.044531,-0.3922 0.645338,-0.2615 1.251742,-0.6565 1.819214,-1.185 l 0,1.7608 c -0.589725,0.4006 -1.215601,0.701 -1.87763,0.9013 -0.656483,0.2002 -1.351901,0.3004 -2.086255,0.3004 -1.8859801,0 -3.3713925,-0.5758 -4.4562417,-1.7274 -1.0848543,-1.1572 -1.6272802,-2.7344 -1.6272792,-4.7317 -10e-7,-2.0028 0.5424249,-3.58 1.6272792,-4.7316 1.0848492,-1.1572 2.5702616,-1.7357 4.4562417,-1.7358 0.745481,10e-5 1.446462,0.1002 2.102946,0.3005 0.662028,0.1947 1.282341,0.4895 1.860939,0.8845"
         style="fill:#808080"
         id="path3038" />
    </g>
  </g>
</svg>
