<?xml version="1.0" encoding="UTF-8" standalone="no"?>
<!-- Created with Inkscape (http://www.inkscape.org/) -->

<svg
   xmlns:dc="http://purl.org/dc/elements/1.1/"
   xmlns:cc="http://creativecommons.org/ns#"
   xmlns:rdf="http://www.w3.org/1999/02/22-rdf-syntax-ns#"
   xmlns:svg="http://www.w3.org/2000/svg"
   xmlns="http://www.w3.org/2000/svg"
   xmlns:sodipodi="http://sodipodi.sourceforge.net/DTD/sodipodi-0.dtd"
   xmlns:inkscape="http://www.inkscape.org/namespaces/inkscape"
   width="20"
   height="20"
   id="svg2"
   version="1.1"
   inkscape:version="0.48.4 r9939"
   sodipodi:docname="preguntas.svg">
  <defs
     id="defs4" />
  <sodipodi:namedview
     id="base"
     pagecolor="#ffffff"
     bordercolor="#666666"
     borderopacity="1.0"
     inkscape:pageopacity="0.0"
     inkscape:pageshadow="2"
     inkscape:zoom="14.632896"
     inkscape:cx="9.8698699"
     inkscape:cy="9.7247247"
     inkscape:document-units="px"
     inkscape:current-layer="layer1"
     showgrid="false"
     inkscape:window-width="1202"
     inkscape:window-height="659"
     inkscape:window-x="220"
     inkscape:window-y="102"
     inkscape:window-maximized="0"
     inkscape:snap-bbox="true"
     inkscape:bbox-paths="true"
     inkscape:bbox-nodes="true"
     inkscape:snap-bbox-edge-midpoints="true"
     inkscape:snap-bbox-midpoints="true"
     inkscape:object-paths="true"
     inkscape:snap-intersection-paths="true"
     inkscape:object-nodes="true"
     inkscape:snap-smooth-nodes="true"
     inkscape:snap-midpoints="true"
     inkscape:snap-object-midpoints="true"
     inkscape:snap-global="false"
     showguides="true"
     inkscape:guide-bbox="true">
    <sodipodi:guide
       orientation="0,1"
       position="64.734735,-73.443443"
       id="guide3926" />
  </sodipodi:namedview>
  <metadata
     id="metadata7">
    <rdf:RDF>
      <cc:Work
         rdf:about="">
        <dc:format>image/svg+xml</dc:format>
        <dc:type
           rdf:resource="http://purl.org/dc/dcmitype/StillImage" />
        <dc:title></dc:title>
      </cc:Work>
    </rdf:RDF>
  </metadata>
  <g
     inkscape:label="Capa 1"
     inkscape:groupmode="layer"
     id="layer1"
     transform="translate(0,-1032.3622)">
    <path
       style="fill:#808080;fill-opacity:1;stroke:none"
       d="M 2.0625 1.40625 L 2.0625 17.78125 L 2.0625 18.71875 L 19 18.71875 L 19 17.78125 L 3.0625 17.78125 L 3.0625 1.40625 L 2.0625 1.40625 z M 9.90625 3.59375 L 9.5625 4.625 L 7.65625 10.25 L 3.4375 12.5 L 3.90625 13.375 L 8.3125 11.03125 L 8.46875 10.9375 L 8.53125 10.75 L 10.15625 5.96875 L 13.6875 11.9375 L 14.125 12.6875 L 14.5625 11.9375 L 18.25 5.6875 L 17.40625 5.15625 L 14.125 10.6875 L 10.46875 4.53125 L 9.90625 3.59375 z M 11.15625 4.78125 L 12.75 7.46875 L 12.75 4.78125 L 11.15625 4.78125 z M 14.40625 7.125 L 14.40625 9.21875 L 15.65625 7.125 L 14.40625 7.125 z M 10.28125 7.15625 L 9.5625 9.25 L 9.5625 17.15625 L 12.75 17.15625 L 12.75 11.34375 L 10.28125 7.15625 z M 17.59375 7.78125 L 14.96875 12.1875 L 14.40625 13.15625 L 14.40625 17.15625 L 17.59375 17.15625 L 17.59375 7.78125 z M 7.90625 11.8125 L 4.71875 13.5 L 4.71875 17.15625 L 7.90625 17.15625 L 7.90625 11.8125 z "
       transform="translate(0,1032.3622)"
       id="rect3920" />
  </g>
</svg>
