<?xml version="1.0" encoding="UTF-8" standalone="no"?>
<!-- Created with Inkscape (http://www.inkscape.org/) -->

<svg
   xmlns:dc="http://purl.org/dc/elements/1.1/"
   xmlns:cc="http://creativecommons.org/ns#"
   xmlns:rdf="http://www.w3.org/1999/02/22-rdf-syntax-ns#"
   xmlns:svg="http://www.w3.org/2000/svg"
   xmlns="http://www.w3.org/2000/svg"
   xmlns:sodipodi="http://sodipodi.sourceforge.net/DTD/sodipodi-0.dtd"
   xmlns:inkscape="http://www.inkscape.org/namespaces/inkscape"
   width="20"
   height="20"
   id="svg2"
   version="1.1"
   inkscape:version="0.48.4 r9939"
   sodipodi:docname="favon.svg">
  <defs
     id="defs4" />
  <sodipodi:namedview
     id="base"
     pagecolor="#ffffff"
     bordercolor="#666666"
     borderopacity="1.0"
     inkscape:pageopacity="0.0"
     inkscape:pageshadow="2"
     inkscape:zoom="3.6552859"
     inkscape:cx="6.2629458"
     inkscape:cy="-6.2629458"
     inkscape:document-units="px"
     inkscape:current-layer="layer1"
     showgrid="false"
     inkscape:window-width="797"
     inkscape:window-height="659"
     inkscape:window-x="306"
     inkscape:window-y="113"
     inkscape:window-maximized="0" />
  <metadata
     id="metadata7">
    <rdf:RDF>
      <cc:Work
         rdf:about="">
        <dc:format>image/svg+xml</dc:format>
        <dc:type
           rdf:resource="http://purl.org/dc/dcmitype/StillImage" />
        <dc:title></dc:title>
      </cc:Work>
    </rdf:RDF>
  </metadata>
  <g
     inkscape:label="Capa 1"
     inkscape:groupmode="layer"
     id="layer1"
     transform="translate(0,-1032.3622)">
    <path
       sodipodi:type="star"
       style="fill:#808080;fill-opacity:1;stroke:none"
       id="path2985"
       sodipodi:sides="5"
       sodipodi:cx="274.28571"
       sodipodi:cy="369.50504"
       sodipodi:r1="42.857143"
       sodipodi:r2="18.062277"
       sodipodi:arg1="1.0471976"
       sodipodi:arg2="1.6850053"
       inkscape:flatsided="false"
       inkscape:rounded="0.05"
       inkscape:randomized="0"
       d="m 295.71428,406.62041 c -1.31993,0.74544 -21.97939,-19.01232 -23.48697,-19.17077 -1.49334,-0.15695 -25.51234,14.91975 -26.61863,13.90446 -1.11684,-1.02497 11.28978,-26.77877 10.97461,-28.26152 -0.31219,-1.46876 -22.07327,-19.65322 -21.44953,-21.01912 0.62968,-1.37891 28.95686,2.46213 30.26965,1.70419 1.30039,-0.75079 11.8703,-27.06611 13.36209,-26.89498 1.506,0.17276 6.60654,28.30045 7.73305,29.31477 1.11589,1.00474 29.40953,2.92544 29.70777,4.3971 0.30108,1.48567 -24.8738,15.02851 -25.49036,16.41333 -0.61074,1.37175 6.30578,28.87413 4.99832,29.61254 z"
       inkscape:transform-center-x="0.87352537"
       inkscape:transform-center-y="-0.068808064"
       transform="matrix(0.21197138,-0.08887443,0.08887443,0.21197138,-80.716632,988.53039)" />
  </g>
</svg>
