<?xml version="1.0" encoding="UTF-8" standalone="no"?>
<!-- Created with Inkscape (http://www.inkscape.org/) -->

<svg
   xmlns:dc="http://purl.org/dc/elements/1.1/"
   xmlns:cc="http://creativecommons.org/ns#"
   xmlns:rdf="http://www.w3.org/1999/02/22-rdf-syntax-ns#"
   xmlns:svg="http://www.w3.org/2000/svg"
   xmlns="http://www.w3.org/2000/svg"
   xmlns:sodipodi="http://sodipodi.sourceforge.net/DTD/sodipodi-0.dtd"
   xmlns:inkscape="http://www.inkscape.org/namespaces/inkscape"
   width="20"
   height="20"
   id="svg2"
   version="1.1"
   inkscape:version="0.48.4 r9939"
   sodipodi:docname="favoff.svg">
  <defs
     id="defs4" />
  <sodipodi:namedview
     id="base"
     pagecolor="#ffffff"
     bordercolor="#666666"
     borderopacity="1.0"
     inkscape:pageopacity="0.0"
     inkscape:pageshadow="2"
     inkscape:zoom="23.436797"
     inkscape:cx="8.8158628"
     inkscape:cy="9.789476"
     inkscape:document-units="px"
     inkscape:current-layer="layer1"
     showgrid="false"
     inkscape:window-width="1202"
     inkscape:window-height="659"
     inkscape:window-x="220"
     inkscape:window-y="102"
     inkscape:window-maximized="0" />
  <metadata
     id="metadata7">
    <rdf:RDF>
      <cc:Work
         rdf:about="">
        <dc:format>image/svg+xml</dc:format>
        <dc:type
           rdf:resource="http://purl.org/dc/dcmitype/StillImage" />
        <dc:title></dc:title>
      </cc:Work>
    </rdf:RDF>
  </metadata>
  <g
     inkscape:label="Capa 1"
     inkscape:groupmode="layer"
     id="layer1"
     transform="translate(0,-1032.3622)">
    <path
       style="fill:#808080;fill-opacity:1;stroke:none"
       d="m 9.4495154,1034.5125 c -1.5287204,0.01 -8.1389515,5.4917 -7.34375,6.0937 0.1953392,0.1478 1.1879063,0.2754 2.5625,0.3438 -0.00343,0.043 0,0.081 0,0.125 l 0,7.4687 c 0,0.8864 0.70735,1.5938 1.59375,1.5938 l 1.9375,0 0,-2.75 c 0,-0.8864 0.6802805,-1.5938 1.5312501,-1.5938 0.8509695,0 1.5312505,0.7074 1.5312505,1.5938 l 0,2.75 1.96875,0 c 0.8864,0 1.59375,-0.7074 1.59375,-1.5938 l 0,-7.4687 c 0,-0.067 -0.02335,-0.1228 -0.03125,-0.1875 1.405434,-0.083 2.41037,-0.1913 2.59375,-0.3438 0.733519,-0.6102 -6.408779,-6.0393 -7.9375006,-6.0312 z m 0.2812501,6.5 c 0.7776405,0 1.4062505,0.6286 1.4062505,1.4062 0,0.7777 -0.62861,1.4063 -1.4062505,1.4063 -0.7776403,0 -1.4062501,-0.6286 -1.4062501,-1.4063 0,-0.7776 0.6286098,-1.4062 1.4062501,-1.4062 z"
       id="rect3028"
       inkscape:connector-curvature="0" />
  </g>
</svg>
