<?xml version="1.0" encoding="UTF-8" standalone="no"?>
<!-- Created with Inkscape (http://www.inkscape.org/) -->

<svg
   xmlns:dc="http://purl.org/dc/elements/1.1/"
   xmlns:cc="http://creativecommons.org/ns#"
   xmlns:rdf="http://www.w3.org/1999/02/22-rdf-syntax-ns#"
   xmlns:svg="http://www.w3.org/2000/svg"
   xmlns="http://www.w3.org/2000/svg"
   xmlns:xlink="http://www.w3.org/1999/xlink"
   xmlns:sodipodi="http://sodipodi.sourceforge.net/DTD/sodipodi-0.dtd"
   xmlns:inkscape="http://www.inkscape.org/namespaces/inkscape"
   height="259.57"
   width="464.52"
   version="1.1"
   id="svg2"
   inkscape:version="0.48.4 r9939"
   sodipodi:docname="logo_wide.svg">
  <sodipodi:namedview
     pagecolor="#ffffff"
     bordercolor="#666666"
     borderopacity="1"
     objecttolerance="10"
     gridtolerance="10"
     guidetolerance="10"
     inkscape:pageopacity="0"
     inkscape:pageshadow="2"
     inkscape:window-width="640"
     inkscape:window-height="480"
     id="namedview139"
     showgrid="false"
     inkscape:zoom="0.90919595"
     inkscape:cx="232.25999"
     inkscape:cy="129.785"
     inkscape:window-x="0"
     inkscape:window-y="0"
     inkscape:window-maximized="0"
     inkscape:current-layer="svg2" />
  <defs
     id="defs4">
    <clipPath
       id="clipPath6271"
       clipPathUnits="userSpaceOnUse">
      <rect
         stroke-dasharray="none"
         transform="scale(1,-1)"
         height="485.84"
         width="916.81"
         stroke="#000"
         stroke-miterlimit="4"
         y="-620.33"
         x="-57.764"
         stroke-width="11.644"
         fill="#000"
         id="rect7" />
    </clipPath>
    <linearGradient
       id="linearGradient6319"
       y2="318.71"
       gradientUnits="userSpaceOnUse"
       x2="-84.781"
       gradientTransform="matrix(0.29783177,0,0,0.29783177,425.88952,376.108)"
       y1="137.42"
       x1="315.81">
      <stop
         stop-color="#463f34"
         offset="0"
         id="stop10" />
      <stop
         stop-color="#463f34"
         stop-opacity="0"
         offset="1"
         id="stop12" />
    </linearGradient>
    <linearGradient
       id="linearGradient6321"
       y2="69.066"
       gradientUnits="userSpaceOnUse"
       x2="-510.53"
       gradientTransform="matrix(0.29783177,0,0,0.29783177,425.88952,376.108)"
       y1="607.96"
       x1="-595.56">
      <stop
         stop-color="#463f34"
         offset="0"
         id="stop15" />
      <stop
         stop-color="#463f34"
         stop-opacity="0"
         offset="1"
         id="stop17" />
    </linearGradient>
    <radialGradient
       id="radialGradient6323"
       gradientUnits="userSpaceOnUse"
       cy="-892.41"
       cx="-459.45"
       gradientTransform="matrix(0.40967901,0.09635719,-0.04932448,0.20971145,478.43608,358.38758)"
       r="751.47">
      <stop
         stop-color="#FFF"
         offset="0"
         id="stop20" />
      <stop
         stop-color="#FFF"
         stop-opacity="0"
         offset="1"
         id="stop22" />
    </radialGradient>
    <radialGradient
       id="radialGradient6325"
       gradientUnits="userSpaceOnUse"
       cy="-802.21"
       cx="4.5978"
       gradientTransform="matrix(1.1979583,0.04202459,-0.04697815,0.90427114,-38.848849,-76.373896)"
       r="40">
      <stop
         stop-color="#f5dcd4"
         offset="0"
         id="stop25" />
      <stop
         stop-color="#f5dcd4"
         stop-opacity="0.74901961"
         offset="0.52181"
         id="stop27" />
      <stop
         stop-color="#f5dcd4"
         stop-opacity="0.49803922"
         offset="0.65042"
         id="stop29" />
      <stop
         stop-color="#f5dcd4"
         stop-opacity="0"
         offset="1"
         id="stop31" />
    </radialGradient>
    <radialGradient
       id="radialGradient6327"
       gradientUnits="userSpaceOnUse"
       cy="-414.78"
       cx="635.71"
       gradientTransform="matrix(1.4216439,0.00702124,-0.007907,1.600994,-271.32474,244.81719)"
       r="112.86">
      <stop
         stop-color="#ff6f00"
         offset="0"
         id="stop34" />
      <stop
         stop-color="#ff6f00"
         stop-opacity="0"
         offset="1"
         id="stop36" />
    </radialGradient>
    <radialGradient
       id="radialGradient6329"
       gradientUnits="userSpaceOnUse"
       cy="-342.95"
       cx="408.57"
       r="32.615">
      <stop
         stop-color="#FFF"
         offset="0"
         id="stop39" />
      <stop
         stop-color="#FFF"
         stop-opacity="0"
         offset="1"
         id="stop41" />
    </radialGradient>
    <linearGradient
       id="linearGradient6331"
       y2="-422.02"
       gradientUnits="userSpaceOnUse"
       x2="343.12"
       y1="-660.19"
       x1="-111.01">
      <stop
         stop-color="#96c4c7"
         offset="0"
         id="stop44" />
      <stop
         stop-color="#96c4c7"
         stop-opacity="0"
         offset="1"
         id="stop46" />
    </linearGradient>
    <radialGradient
       id="radialGradient6333"
       gradientUnits="userSpaceOnUse"
       cy="392.46"
       cx="-84.781"
       gradientTransform="matrix(-0.22843855,0.14686074,-0.52936172,-0.82341019,589.02638,776.62805)"
       r="269.52">
      <stop
         stop-color="#633a2c"
         offset="0"
         id="stop49" />
      <stop
         stop-color="#633a2c"
         stop-opacity="0"
         offset="1"
         id="stop51" />
    </radialGradient>
    <linearGradient
       inkscape:collect="always"
       xlink:href="#linearGradient6319"
       id="linearGradient3157"
       gradientUnits="userSpaceOnUse"
       gradientTransform="matrix(0.29783177,0,0,0.29783177,425.88952,376.108)"
       x1="315.81"
       y1="137.42"
       x2="-84.781"
       y2="318.71" />
    <linearGradient
       inkscape:collect="always"
       xlink:href="#linearGradient6321"
       id="linearGradient3159"
       gradientUnits="userSpaceOnUse"
       gradientTransform="matrix(0.29783177,0,0,0.29783177,425.88952,376.108)"
       x1="-595.56"
       y1="607.96"
       x2="-510.53"
       y2="69.066" />
    <radialGradient
       inkscape:collect="always"
       xlink:href="#radialGradient6323"
       id="radialGradient3161"
       gradientUnits="userSpaceOnUse"
       gradientTransform="matrix(0.40967901,0.09635719,-0.04932448,0.20971145,478.43608,358.38758)"
       cx="-459.45"
       cy="-892.41"
       r="751.47" />
    <radialGradient
       inkscape:collect="always"
       xlink:href="#radialGradient6325"
       id="radialGradient3163"
       gradientUnits="userSpaceOnUse"
       gradientTransform="matrix(1.1979583,0.04202459,-0.04697815,0.90427114,-38.848849,-76.373896)"
       cx="4.5978"
       cy="-802.21"
       r="40" />
    <radialGradient
       inkscape:collect="always"
       xlink:href="#radialGradient6327"
       id="radialGradient3165"
       gradientUnits="userSpaceOnUse"
       gradientTransform="matrix(1.4216439,0.00702124,-0.007907,1.600994,-271.32474,244.81719)"
       cx="635.71"
       cy="-414.78"
       r="112.86" />
    <radialGradient
       inkscape:collect="always"
       xlink:href="#radialGradient6329"
       id="radialGradient3167"
       gradientUnits="userSpaceOnUse"
       cx="408.57"
       cy="-342.95"
       r="32.615" />
    <linearGradient
       inkscape:collect="always"
       xlink:href="#linearGradient6331"
       id="linearGradient3169"
       gradientUnits="userSpaceOnUse"
       x1="-111.01"
       y1="-660.19"
       x2="343.12"
       y2="-422.02" />
    <radialGradient
       inkscape:collect="always"
       xlink:href="#radialGradient6333"
       id="radialGradient3171"
       gradientUnits="userSpaceOnUse"
       gradientTransform="matrix(-0.22843855,0.14686074,-0.52936172,-0.82341019,589.02638,776.62805)"
       cx="-84.781"
       cy="392.46"
       r="269.52" />
  </defs>
  <metadata
     id="metadata53">
    <rdf:RDF>
      <cc:Work
         rdf:about="">
        <dc:format>image/svg+xml</dc:format>
        <dc:type
           rdf:resource="http://purl.org/dc/dcmitype/StillImage" />
        <dc:title />
      </cc:Work>
    </rdf:RDF>
  </metadata>
  <flowRoot
     id="flowRoot57"
     font-style="normal"
     line-height="125%"
     font-size="144px"
     xml:space="preserve"
     font-weight="normal"
     style="font-size:144px;font-style:normal;font-weight:normal;line-height:125%;letter-spacing:0px;word-spacing:0px;fill:#000000;font-family:Sans"
     transform="translate(-65.738597,-37.159317)"><flowRegion
       id="flowRegion59"><rect
         id="rect61"
         x="130"
         y="460.35999"
         width="290"
         height="418" /></flowRegion><flowPara
       id="flowPara63" /></flowRoot>  <flowRoot
     id="flowRoot65"
     font-style="normal"
     line-height="125%"
     font-size="144px"
     xml:space="preserve"
     font-weight="normal"
     style="font-size:144px;font-style:normal;font-weight:normal;line-height:125%;letter-spacing:0px;word-spacing:0px;fill:#000000;font-family:Sans"
     transform="translate(-65.738597,-37.159317)"><flowRegion
       id="flowRegion67"><rect
         id="rect69"
         x="194"
         y="528.35999"
         width="270"
         height="428" /></flowRegion><flowPara
       id="flowPara71" /></flowRoot>  <flowRoot
     id="flowRoot73"
     font-style="normal"
     line-height="125%"
     font-size="64px"
     xml:space="preserve"
     font-weight="normal"
     style="font-size:64px;font-style:normal;font-weight:normal;line-height:125%;letter-spacing:0px;word-spacing:0px;fill:#000000;font-family:Sans"
     transform="translate(-65.738597,-37.159317)"><flowRegion
       id="flowRegion75"><rect
         id="rect77"
         x="27.052999"
         y="36.973999"
         width="191.17"
         height="151.5" /></flowRegion><flowPara
       id="flowPara79" /></flowRoot>  <g
     transform="matrix(0.57399329,0,0,0.57399329,36.21548,-96.499354)"
     clip-path="url(#clipPath6271)"
     id="g83">
    <path
       d="m 502.62,170.62 c -15.256,0.0416 -30.168,1.1213 -44.469,3.125 -3.178,0.44527 -6.321,0.93503 -9.4375,1.4688 -6.233,1.0674 -12.325,2.3159 -18.281,3.7188 -2.978,0.70143 -5.9114,1.4381 -8.8125,2.2188 -3.561,0.95827 -7.0637,1.99 -10.5,3.0625 -10.274,-2.8739 -44.671,1.8768 -56.781,14.094 -7.6114,7.6785 -12.96,15.25 -20.312,27.312 -2.4979,2.0253 -4.9035,4.062 -7.1875,6.0625 -3.7682,3.3003 -7.263,6.5329 -10.406,9.6562 -1.5716,1.5616 -3.0633,3.1019 -4.4688,4.5938 -0.70272,0.74592 -1.3713,1.4622 -2.0312,2.1875 -5.9473,6.5346 -10.112,12.191 -12.25,16.188 -0.23731,0.44369 -0.47006,0.84825 -0.65625,1.25 -0.56517,1.2155 -0.88466,2.2366 -0.96875,3.0312 -0.0279,0.26318 -0.0266,0.47476 0,0.6875 0.001,0.009 -10e-4,0.022 0,0.0312 0.30234,2.4187 1.9348,5.8909 4.625,9.6562 -10.26,13.533 -59.732,81.284 -72.688,146.06 -14.466,72.331 39.991,141.25 59.562,148.91 -0.58503,-0.3191 -1.1752,-0.6757 -1.75,-1.0625 -17.818,-11.992 -30.509,-55.845 -25.688,-89.594 2.1774,-15.241 7.0538,-31.402 11.844,-44.75 0.68427,-1.9068 1.3583,-3.7496 2.0312,-5.5312 5.3834,-14.253 10.156,-24.156 10.156,-24.156 0,0 14.469,9.3744 58.719,-23.813 0.23441,-0.1758 0.45662,-0.3544 0.6875,-0.5312 0.67613,6.0395 1.2715,11.223 1.5312,12.781 0.85094,5.1058 -3.3918,28.082 -5.0938,33.188 -1.7019,5.1057 -11.933,11.918 -16.188,17.875 -4.2547,5.9566 -5.1106,17.87 -6.8125,22.125 -1.6277,4.0692 -9.4766,5.8015 -14.625,11.156 -1.3417,-0.0674 -2.375,-0.0938 -2.375,-0.0938 0,0 -5.1146,10.198 41.688,23.813 13.163,3.8292 27.468,5.1087 41.5,4.75 1.5591,-0.0399 3.1059,-0.1087 4.6562,-0.1876 29.456,-1.4979 56.984,-9.8052 69.219,-16.187 -4.4038,2.4628 -11.265,5.2886 -19.75,7.9062 0.0533,2.3399 0.14495,4.723 0.25,7.125 0.10505,2.402 0.22112,4.808 0.375,7.25 1.2301,19.545 3.9807,40.014 7.5,55.781 0.43968,1.9699 0.91269,3.8445 1.375,5.6563 2.3134,9.0726 4.8697,16.009 7.5312,19.469 4.7866,6.2226 16.57,20.526 26.875,35.938 1.145,1.7124 2.2782,3.4259 3.375,5.1562 2.1988,3.4678 4.2597,6.9505 6.125,10.375 0.46533,0.8543 0.93771,1.6856 1.375,2.5312 2.6295,5.0825 4.6878,9.9702 5.9375,14.438 0.20795,0.7433 0.40295,1.4695 0.5625,2.1874 0.002,0.01 -0.002,0.0218 0,0.0313 0.31655,1.4252 0.62674,2.8096 0.90625,4.1563 0.84733,4.0804 1.5351,7.7881 2.125,11.156 0.78472,4.4802 1.3834,8.3191 1.9688,11.562 1.1725,6.5017 2.2448,10.546 4.375,12.25 4.2547,3.4038 39.14,6.7932 48.5,1.6875 7.4247,-4.0498 45.886,-37.514 73.375,-52.469 1.7619,-0.9586 3.4645,-1.8621 5.125,-2.6562 0.0305,-0.0146 0.0632,-0.0167 0.0937,-0.0312 0.9901,-0.4723 1.9587,-0.9064 2.9062,-1.3126 0.38749,-0.1661 0.74517,-0.3143 1.125,-0.4687 0.3894,-0.1584 0.77524,-0.323 1.1562,-0.4687 0.91472,-0.3498 1.7933,-0.6647 2.6562,-0.9376 0.56656,-0.1793 1.145,-0.3244 1.6875,-0.4687 0.0629,-0.0167 0.12496,-0.0463 0.1875,-0.0625 1.263,-0.3275 2.4757,-0.5677 3.5938,-0.6875 23.827,-2.5528 95.312,13.625 95.312,13.625 0,0 -7.5068,-26.716 -12.531,-65.688 -0.26445,-2.0511 -0.53197,-4.133 -0.78125,-6.25 -2.7421,-23.287 -4.4856,-50.42 -3.2812,-78.625 0.10949,-2.564 0.2467,-5.1393 0.40625,-7.7188 0.16018,-2.5896 0.3075,-5.1839 0.4375,-7.8124 0.1291,-2.6078 0.24441,-5.2348 0.34375,-7.875 3.9e-4,-0.0104 -3.9e-4,-0.021 0,-0.0313 0.0996,-2.6508 0.18044,-5.2911 0.25,-7.9687 0.34808,-13.398 0.31441,-27.089 -0.0937,-40.719 -0.0815,-2.724 -0.16944,-5.4406 -0.28125,-8.1562 -2.0126,-48.882 -8.9293,-95.915 -20.938,-124.03 -0.33356,-0.78101 -0.68986,-1.5611 -1.0312,-2.3125 -3.0726,-6.7628 -6.4467,-12.306 -10.156,-16.375 -4.9494,-5.4284 -11.261,-12.686 -18.719,-20.938 -2.4838,-2.7482 -5.1181,-5.5928 -7.8438,-8.5312 -13.628,-14.692 -30.166,-31.381 -48.469,-46.219 -3.6605,-2.9676 -7.3636,-5.8673 -11.156,-8.6562 -1.8963,-1.3945 -3.8241,-2.7555 -5.75,-4.0938 -1.9259,-1.3383 -3.8592,-2.6319 -5.8125,-3.9062 -5.8598,-3.8231 -11.842,-7.3589 -17.906,-10.469 -2.0215,-1.0366 -4.0541,-2.0268 -6.0938,-2.9688 -1.0198,-0.47098 -2.0385,-0.92912 -3.0625,-1.375 -5.1198,-2.2294 -10.299,-4.1264 -15.5,-5.6562 -3.1208,-0.91792 -6.2352,-1.7123 -9.375,-2.3438 -2.0932,-0.42099 -4.2137,-0.77842 -6.3125,-1.0625 -1.0494,-0.14204 -2.0746,-0.26863 -3.125,-0.375 -11.554,-1.17 -23.023,-1.6869 -34.281,-1.6562 z"
       stroke-miterlimit="4"
       id="path85"
       inkscape:connector-curvature="0"
       style="fill:#000000;stroke:#000000;stroke-width:5;stroke-miterlimit:4;stroke-dasharray:none" />
    <path
       d="m 301.78,482.88 c 5.1057,-5.9566 13.615,-7.6585 15.317,-11.913 1.7019,-4.2547 2.5528,-16.168 6.8076,-22.125 4.2547,-5.9566 14.466,-12.764 16.168,-17.87 1.7019,-5.1057 5.9566,-28.081 5.1057,-33.187 -0.85095,-5.1057 -5.1057,-45.951 -5.1057,-45.951 l 66.374,-16.168 65.523,42.547 26.379,71.48 -5.1057,27.23 -68.076,17.019 -62.97,9.3604 -43.398,-14.466 z"
       id="path87"
       inkscape:connector-curvature="0"
       style="fill:#505050" />
    <path
       d="m 373.26,330.56 c 17.019,21.274 34.889,62.97 49.355,79.989 14.466,17.019 35.74,26.379 39.995,35.74 4.2548,9.3604 11.062,35.74 -0.85094,45.1 -11.913,9.3604 -73.182,28.081 -119.98,14.466 -46.802,-13.615 -41.696,-23.827 -41.696,-23.827 l 11.913,1.7019 c 4.2547,1.7019 12.764,-21.274 18.721,-24.677 5.9566,-3.4038 19.572,-5.9566 22.976,-13.615 3.4038,-7.6585 7.6585,-38.293 6.8076,-51.057 -0.85095,-12.764 -4.2547,-22.976 -4.2547,-22.976 l 0.85094,-32.336 z"
       id="path89"
       inkscape:connector-curvature="0"
       style="fill:#f5dcd4" />
    <path
       d="m 373.26,330.56 c 17.019,21.274 34.889,62.97 49.355,79.989 14.466,17.019 35.74,26.379 39.995,35.74 4.2548,9.3604 11.062,35.74 -0.85094,45.1 -11.913,9.3604 -73.182,28.081 -119.98,14.466 -46.802,-13.615 -41.696,-23.827 -41.696,-23.827 l 11.913,1.7019 c 4.2547,1.7019 12.764,-21.274 18.721,-24.677 5.9566,-3.4038 19.572,-5.9566 22.976,-13.615 3.4038,-7.6585 7.6585,-38.293 6.8076,-51.057 -0.85095,-12.764 -4.2547,-22.976 -4.2547,-22.976 l 0.85094,-32.336 z"
       id="path91"
       style="fill:url(#linearGradient3157)"
       inkscape:connector-curvature="0" />
    <path
       d="m 287.65,574.45 c -19.572,-7.6585 -74.032,-76.585 -59.566,-148.92 14.466,-72.331 74.883,-148.92 74.883,-148.92 l 65.523,24.677 c 0,0 18.721,51.057 -25.528,84.244 -44.249,33.187 -58.715,23.827 -58.715,23.827 0,0 -19.045,39.593 -24.022,74.431 -4.9768,34.838 8.7047,80.442 27.426,90.653 z"
       id="path93"
       inkscape:connector-curvature="0"
       style="fill:#f5dcd4" />
    <path
       d="m 287.65,574.45 c -19.572,-7.6585 -74.032,-76.585 -59.566,-148.92 14.466,-72.331 74.883,-148.92 74.883,-148.92 l 65.523,24.677 c 0,0 18.721,51.057 -25.528,84.244 -44.249,33.187 -58.715,23.827 -58.715,23.827 0,0 -19.045,39.593 -24.022,74.431 -4.9768,34.838 8.7047,80.442 27.426,90.653 z"
       id="path95"
       style="fill:url(#linearGradient3159)"
       inkscape:connector-curvature="0" />
    <path
       d="m 502.71,171.12 c -54.244,0.14778 -103.94,13.582 -138.47,34.018 -41.696,24.677 -68.933,57.859 -68.082,64.667 0.85095,6.8076 11.917,22.123 28.936,28.08 17.019,5.9566 31.488,8.5108 39.146,13.616 4.3513,2.9009 6.7742,12.389 8.0601,20.048 16.942,21.37 34.703,62.737 49.096,79.67 14.466,17.019 35.738,26.379 39.993,35.74 4.2547,9.3604 11.066,35.733 -0.84696,45.094 -3.6617,2.877 -11.995,6.6449 -23.128,10.08 0.85304,37.439 8.5149,84.227 17.023,95.288 8.5095,11.062 39.141,47.657 44.247,70.633 5.1057,22.976 5.1083,35.733 9.3631,39.137 4.2547,3.4038 39.14,6.8089 48.5,1.7032 9.3604,-5.1057 68.082,-57.014 91.909,-59.566 23.827,-2.5528 95.306,13.616 95.306,13.616 0,0 -21.272,-75.737 -16.167,-158.28 5.1057,-82.542 -5.107,-186.35 -31.486,-215.29 -26.379,-28.932 -91.901,-109.77 -159.13,-116.58 -11.554,-1.17 -23.011,-1.706 -34.269,-1.6753 z"
       id="path97"
       inkscape:connector-curvature="0"
       style="fill:#f0cf2e" />
    <path
       d="m 502.71,171.13 c -54.244,0.14779 -103.94,13.582 -138.47,34.018 -41.696,24.677 -68.933,57.859 -68.082,64.667 0.85095,6.8076 11.917,22.123 28.936,28.08 17.019,5.9566 31.488,8.5108 39.146,13.616 2.62,1.7467 4.5342,5.8873 5.9287,10.573 12.251,-2.5294 30.287,-5.8921 42.618,-6.6174 20.253,-1.1913 51.227,-13.105 86.967,-2.3827 35.74,10.7223 47.72,8.1968 89.35,42.888 35.74,29.783 76.245,77.436 81.01,96.497 4.7653,19.061 -9.5306,117.94 -13.105,139.39 -3.1192,18.715 -29.83,42.87 -27.075,64.555 7.1699,-3.9012 13.592,-6.5454 18.521,-7.0735 23.827,-2.5528 95.306,13.616 95.306,13.616 0,0 -21.272,-75.737 -16.167,-158.28 5.1057,-82.542 -5.107,-186.35 -31.486,-215.29 -26.379,-28.932 -91.901,-109.77 -159.13,-116.58 -11.554,-1.17 -23.011,-1.706 -34.269,-1.6753 z"
       id="path99"
       inkscape:connector-curvature="0"
       style="fill:#ffb152" />
    <path
       d="m 502.71,171.13 c -54.244,0.14779 -103.94,13.582 -138.47,34.018 -41.696,24.677 -68.933,57.859 -68.082,64.667 0.85095,6.8076 11.917,22.123 28.936,28.08 17.019,5.9566 31.488,8.5108 39.146,13.616 2.62,1.7467 4.5342,5.8873 5.9287,10.573 12.251,-2.5294 30.287,-5.8921 42.618,-6.6174 20.253,-1.1913 51.227,-13.105 86.967,-2.3827 35.74,10.7223 47.72,8.1968 89.35,42.888 35.74,29.783 77.247,77.213 81.01,96.497 9.5306,48.844 -9.5306,117.94 -13.105,139.39 -3.1192,18.715 -29.83,42.87 -27.075,64.555 7.1699,-3.9013 13.592,-6.5454 18.521,-7.0735 23.827,-2.5528 95.306,13.616 95.306,13.616 0,0 -21.272,-75.737 -16.167,-158.28 5.1057,-82.542 -5.107,-186.35 -31.486,-215.29 -26.379,-28.932 -91.901,-109.77 -159.13,-116.58 -11.554,-1.17 -23.011,-1.706 -34.269,-1.6753 z"
       id="path101"
       style="fill:url(#radialGradient3161)"
       inkscape:connector-curvature="0" />
    <path
       d="m 45.714,-801.92 c 0,22.091 -17.909,40 -40,40 -22.091,0 -40,-17.909 -40,-40 0,-22.091 17.909,-40 40,-40 22.091,0 40,17.909 40,40 z"
       transform="matrix(0.44820751,0,0,0.54543987,319.03664,712.0788)"
       id="path103"
       style="fill:url(#radialGradient3163)"
       inkscape:connector-curvature="0" />
    <path
       d="m 45.714,-801.92 c 0,22.091 -17.909,40 -40,40 -22.091,0 -40,-17.909 -40,-40 0,-22.091 17.909,-40 40,-40 22.091,0 40,17.909 40,40 z"
       transform="matrix(0.15445679,0,0,0.18796403,319.09374,425.32429)"
       stroke-miterlimit="4"
       id="path105"
       inkscape:connector-curvature="0"
       style="fill:#000000;stroke:#000000;stroke-width:1.5;stroke-miterlimit:4;stroke-dasharray:none" />
    <g
       transform="matrix(1.2480312,-0.25534369,0.25534369,1.2480312,-272.37352,64.297802)"
       id="g107">
      <path
         d="m 477.98,258.7 c 25.908,-16.292 48.961,-29.74 66.963,-26.001 18.002,3.739 32.134,42.405 38.135,49.883 6.0006,7.478 3.7504,8.4128 3.7504,8.4128 0,0 -41.501,30.062 -70.789,23.316 -30.386,-6.999 -38.06,-55.61 -38.06,-55.61 z"
         id="path109"
         inkscape:connector-curvature="0"
         style="fill:#ffffff" />
      <path
         d="m 748.57,-414.78 c 0,62.329 -50.528,112.86 -112.86,112.86 -62.329,0 -112.86,-50.528 -112.86,-112.86 0,-62.329 50.528,-112.86 112.86,-112.86 62.329,0 112.86,50.528 112.86,112.86 z"
         transform="matrix(0.23790963,0,0,0.23790963,380.20319,374.02002)"
         stroke-miterlimit="4"
         id="path111"
         inkscape:connector-curvature="0"
         style="fill:#ff0000;stroke:#000000;stroke-width:2.25211287;stroke-miterlimit:4;stroke-dasharray:none" />
      <path
         d="m 748.57,-414.78 c 0,62.329 -50.528,112.86 -112.86,112.86 -62.329,0 -112.86,-50.528 -112.86,-112.86 0,-62.329 50.528,-112.86 112.86,-112.86 62.329,0 112.86,50.528 112.86,112.86 z"
         transform="matrix(0.22169846,0,0,0.22169846,390.3345,367.46482)"
         id="path113"
         style="fill:url(#radialGradient3165)"
         inkscape:connector-curvature="0" />
      <path
         d="m 748.57,-414.78 c 0,62.329 -50.528,112.86 -112.86,112.86 -62.329,0 -112.86,-50.528 -112.86,-112.86 0,-62.329 50.528,-112.86 112.86,-112.86 62.329,0 112.86,50.528 112.86,112.86 z"
         transform="matrix(0.19296802,0,0,0.19296802,409.19868,354.95363)"
         id="path115"
         inkscape:connector-curvature="0"
         style="fill:#000000" />
      <path
         d="m 441.19,-342.95 c 0,18.013 -14.602,32.615 -32.615,32.615 -18.013,0 -32.615,-14.602 -32.615,-32.615 0,-18.013 14.602,-32.615 32.615,-32.615 18.013,0 32.615,14.602 32.615,32.615 z"
         transform="matrix(0.36822836,0,0,0.36822836,391.65253,387.35764)"
         id="path117"
         style="fill:url(#radialGradient3167)"
         inkscape:connector-curvature="0" />
    </g>
    <g
       transform="matrix(0.22165077,-0.19893391,0.19893391,0.22165077,429.46171,414.97644)"
       id="g119">
      <path
         d="m -230.09,-445.24 -10.092,-48.44 56.513,-40.366 147.34,-70.641 137.25,-46.421 125.14,-42.385 72.66,2.0183 80.733,42.385 62.568,48.44 -54.495,48.44 -98.898,24.22 -312.84,102.93 -141.28,16.147 z"
         id="path121"
         style="fill:url(#linearGradient3169)"
         inkscape:connector-curvature="0" />
      <g
         transform="matrix(1.4865787,0,0,1.4865787,-426.01934,960.22859)"
         id="g123">
        <path
           d="m 486.91,-1120.2 c -38.203,2.3481 -68.144,13.342 -142.05,35.838 -77.491,23.586 -112.76,39.372 -168.62,68.915 -61.201,32.368 -58.935,51.621 -53.189,71.314 4.8305,16.555 6.0899,41.947 64.395,35.894 76.019,-7.8919 206.78,-49.149 232.92,-57.674 25.785,-8.41 57.906,-21.741 77.885,-28.784 19.726,-6.9528 13.091,-0.88406 35.023,-1.605 13.992,-0.45981 58.812,-9.3102 80.448,-18.238 11.868,-4.8972 3.4518,-16.312 -9.6924,-39.694 -11.824,-21.033 -77.883,-68.378 -117.12,-65.967 m -37.793,16.112 c 36.692,-4.2371 122.57,53.318 90.816,70.593 -33.342,18.136 -45.084,23.215 -127.9,54.444 -88.235,33.273 -140.63,42.156 -206.6,52.052 -65.289,9.7955 -60.955,-4.2045 -69.556,-21.629 -9.303,-18.846 2.5034,-37.949 55.983,-66.175 49.366,-26.055 79.338,-38.496 149.36,-61.758 66.65,-22.142 71.723,-23.35 107.89,-27.526"
           id="path125"
           inkscape:connector-curvature="0"
           style="fill:#000000" />
        <path
           d="m 486.57,-1122.5 c -38.212,2.2322 -66.486,12.255 -139.78,35.532 -77.509,24.616 -115.09,39.623 -170.96,67.706 -61.216,30.769 -58.949,45.414 -53.201,64.134 4.8316,15.737 6.0914,39.875 64.41,34.121 76.036,-7.5021 206.83,-46.722 232.98,-54.826 25.791,-7.9947 57.92,-20.668 77.904,-27.362 19.73,-6.6095 13.094,-0.8404 35.031,-1.5257 13.995,-0.4372 58.826,-8.8505 80.467,-17.337 11.871,-4.6553 3.4526,-15.506 -9.6947,-37.734 -11.826,-19.994 -77.901,-65.001 -117.15,-62.709 m -37.801,15.317 c 36.7,-4.0278 122.6,50.685 90.838,67.106 -33.349,17.241 -45.095,22.068 -127.93,51.755 -88.256,31.629 -140.67,40.074 -206.65,49.482 -65.304,9.3117 -60.969,-3.997 -69.573,-20.561 -9.3052,-17.916 2.504,-36.075 55.996,-62.907 49.377,-24.768 79.356,-36.595 149.4,-58.708 66.666,-21.049 71.74,-22.196 107.92,-26.167"
           id="path127"
           inkscape:connector-curvature="0"
           style="fill:#4d4d4d" />
      </g>
    </g>
    <path
       d="m 400.87,377.41 -0.23268,0.7632 c 7.3368,13.234 14.377,25.546 20.755,33.05 14.466,17.019 35.738,26.379 39.993,35.74 4.2548,9.3604 11.066,35.733 -0.84696,45.094 -3.6617,2.877 -11.995,6.6449 -23.128,10.08 0.85304,37.439 8.5149,84.227 17.023,95.288 8.5095,11.062 39.141,47.657 44.247,70.633 5.1057,22.976 5.1083,35.733 9.3631,39.137 52.372,-29.996 59.613,-155.85 48.891,-174.91 -10.72,-19.06 -71.77,-118.32 -156.06,-154.87 z"
       id="path129"
       style="fill:url(#radialGradient3171)"
       inkscape:connector-curvature="0" />
  </g>
  <text
     style="font-size:20.98652458px;font-style:normal;font-weight:normal;line-height:125%;letter-spacing:0px;word-spacing:0px;fill:#000000;font-family:Sans"
     font-weight="normal"
     transform="matrix(0.91996125,0.39200931,-0.39200931,0.91996125,0,0)"
     line-height="125%"
     xml:space="preserve"
     font-size="37.86317444px"
     font-style="normal"
     y="159.40604"
     x="88.985069"
     id="text131"
     sodipodi:linespacing="125%"><tspan
       font-weight="normal"
       font-size="283.9737854px"
       font-style="normal"
       font-stretch="normal"
       font-variant="normal"
       y="159.40604"
       x="88.985069"
       id="tspan133"
       style="font-size:157.39892578px;font-style:normal;font-variant:normal;font-weight:normal;font-stretch:normal;font-family:Courier 10 Pitch">?</tspan></text>
  <text
     style="font-size:44.48454666px;font-style:normal;font-weight:normal;line-height:125%;letter-spacing:0px;word-spacing:0px;fill:#000000;font-family:Sans"
     line-height="125%"
     font-weight="normal"
     font-size="44.48454666px"
     font-style="normal"
     y="47.316963"
     x="10.147068"
     xml:space="preserve"
     id="text135"
     sodipodi:linespacing="125%"><tspan
       font-size="62.27836227px"
       y="47.316963"
       x="10.147068"
       id="tspan137"
       style="font-size:62.27836227px">Quiz!</tspan></text>
</svg>
