<?xml version="1.0" encoding="UTF-8" standalone="no"?>
<!-- Created with Inkscape (http://www.inkscape.org/) -->

<svg
   xmlns:dc="http://purl.org/dc/elements/1.1/"
   xmlns:cc="http://creativecommons.org/ns#"
   xmlns:rdf="http://www.w3.org/1999/02/22-rdf-syntax-ns#"
   xmlns:svg="http://www.w3.org/2000/svg"
   xmlns="http://www.w3.org/2000/svg"
   xmlns:sodipodi="http://sodipodi.sourceforge.net/DTD/sodipodi-0.dtd"
   xmlns:inkscape="http://www.inkscape.org/namespaces/inkscape"
   width="20"
   height="20"
   id="svg2"
   version="1.1"
   inkscape:version="0.48.4 r9939"
   sodipodi:docname="inicio.svg">
  <defs
     id="defs4" />
  <sodipodi:namedview
     id="base"
     pagecolor="#ffffff"
     bordercolor="#666666"
     borderopacity="1.0"
     inkscape:pageopacity="0.0"
     inkscape:pageshadow="2"
     inkscape:zoom="23.436797"
     inkscape:cx="9.4309789"
     inkscape:cy="8.6520531"
     inkscape:document-units="px"
     inkscape:current-layer="layer1"
     showgrid="false"
     inkscape:window-width="1202"
     inkscape:window-height="659"
     inkscape:window-x="220"
     inkscape:window-y="102"
     inkscape:window-maximized="0" />
  <metadata
     id="metadata7">
    <rdf:RDF>
      <cc:Work
         rdf:about="">
        <dc:format>image/svg+xml</dc:format>
        <dc:type
           rdf:resource="http://purl.org/dc/dcmitype/StillImage" />
        <dc:title></dc:title>
      </cc:Work>
    </rdf:RDF>
  </metadata>
  <g
     inkscape:label="Capa 1"
     inkscape:groupmode="layer"
     id="layer1"
     transform="translate(0,-1032.3622)">
    <path
       style="fill:#808080;fill-opacity:1;stroke:none"
       d="m 4.4801344,1039.9754 c -2.0757796,-0.6095 -1.0767961,-3.1762 -0.1424549,-4.3552 1.8363417,-2.679 6.1868665,-3.6989 8.8204965,-1.4601 2.039843,1.7637 0.699345,4.7929 -1.06813,6.251 -1.767475,1.4581 -2.7505831,2.5263 -3.6211649,4.3334 2.1669509,2.2349 2.5216369,2.4531 0.1932544,3.2999 -0.7127494,0.2592 -2.234547,-1.3983 -2.2960164,-4.0902 1.6003948,-2.5204 4.7549979,-3.8677 5.9761749,-6.6452 0.364335,-2.7392 -4.0542592,-3.3036 -5.0552746,-0.9238 -0.7960809,1.0845 -0.8490274,3.8753 -2.806885,3.5902 z"
       id="path3886"
       inkscape:connector-curvature="0"
       sodipodi:nodetypes="ccczcscccc" />
    <path
       sodipodi:type="arc"
       style="fill:#808080;fill-opacity:1;stroke:none"
       id="path3890"
       sodipodi:cx="7.1682148"
       sodipodi:cy="17.226583"
       sodipodi:rx="1.6640499"
       sodipodi:ry="1.6640499"
       d="m 8.8322647,17.226583 a 1.6640499,1.6640499 0 1 1 -3.3280998,0 1.6640499,1.6640499 0 1 1 3.3280998,0 z"
       transform="translate(3.6267754,1032.4475)" />
  </g>
</svg>
